<svg xmlns="http://www.w3.org/2000/svg" xmlns:xlink="http://www.w3.org/1999/xlink"><symbol id="cart-icon" viewBox="0 0 16 17"><g fill="none">
<rect y="4" width="16" height="13" rx="1" fill="white"/>
<mask id="path-2-inside-1_3728_18" fill="white">
<rect y="4" width="16" height="13" rx="1"/>
</mask>
<rect y="4" width="16" height="13" rx="1" stroke="#303030" stroke-width="3.2" mask="url(#path-2-inside-1_3728_18)"/>
<path d="M4 8L4 5C4 2.79086 5.79086 1 8 1V1C10.2091 1 12 2.79086 12 5L12 8" stroke="#303030" stroke-width="1.6"/>
</g></symbol><symbol id="find-icon" viewBox="0 0 20 20"><g fill="none">
<path fill-rule="evenodd" clip-rule="evenodd" d="M13.2 8.5C13.2 11.0957 11.0957 13.2 8.5 13.2C5.90426 13.2 3.8 11.0957 3.8 8.5C3.8 5.90426 5.90426 3.8 8.5 3.8C11.0957 3.8 13.2 5.90426 13.2 8.5ZM12.062 13.938C11.039 14.6094 9.81512 15 8.5 15C4.91015 15 2 12.0899 2 8.5C2 4.91015 4.91015 2 8.5 2C12.0899 2 15 4.91015 15 8.5C15 10.1561 14.3806 11.6676 13.3609 12.8153L17.2728 16.7272L16 18L12 14L12.062 13.938Z" fill="#303030"/>
</g></symbol><symbol id="left-arrow" viewBox="0 0 17 8"><g fill="none">
<path d="M0.646446 4.35355C0.451185 4.15829 0.451185 3.84171 0.646446 3.64645L3.82843 0.464465C4.02369 0.269203 4.34027 0.269203 4.53553 0.464465C4.7308 0.659727 4.7308 0.97631 4.53553 1.17157L1.70711 4L4.53553 6.82843C4.7308 7.02369 4.7308 7.34027 4.53553 7.53553C4.34027 7.73079 4.02369 7.73079 3.82843 7.53553L0.646446 4.35355ZM17 4.5L1 4.5L1 3.5L17 3.5L17 4.5Z" fill="black"/>
</g></symbol><symbol id="like-icon" viewBox="0 0 20 20"><g fill="none">
<path d="M9.99998 17.5C9.46248 17.0233 8.85498 16.5275 8.21248 16H8.20415C5.94165 14.15 3.37748 12.0566 2.24498 9.54829C1.87291 8.74973 1.67573 7.8809 1.66664 6.99996C1.66415 5.7912 2.14895 4.63245 3.01149 3.7856C3.87402 2.93875 5.04147 2.47529 6.24998 2.49996C7.23384 2.50151 8.19651 2.78586 9.02331 3.31913C9.38662 3.55493 9.71533 3.84017 9.99998 4.16663C10.2862 3.84145 10.615 3.55638 10.9775 3.31913C11.8039 2.78576 12.7664 2.50139 13.75 2.49996C14.9585 2.47529 16.1259 2.93875 16.9885 3.7856C17.851 4.63245 18.3358 5.7912 18.3333 6.99996C18.3248 7.88231 18.1276 8.75262 17.755 9.55246C16.6225 12.0608 14.0591 14.1533 11.7966 16L11.7883 16.0066C11.145 16.5308 10.5383 17.0266 10.0008 17.5066L9.99998 17.5ZM6.24998 4.16663C5.47374 4.15691 4.72504 4.454 4.16665 4.99329C3.62863 5.52176 3.32794 6.24583 3.33324 6.99996C3.34275 7.64204 3.48817 8.27484 3.75998 8.85663C4.29457 9.93888 5.0159 10.9183 5.89081 11.75C6.71665 12.5833 7.66665 13.39 8.48831 14.0683C8.71581 14.2558 8.94748 14.445 9.17915 14.6341L9.32498 14.7533C9.54748 14.935 9.77748 15.1233 9.99998 15.3083L10.0108 15.2983L10.0158 15.2941H10.0208L10.0283 15.2883H10.0325H10.0366L10.0516 15.2758L10.0858 15.2483L10.0916 15.2433L10.1008 15.2366H10.1058L10.1133 15.23L10.6666 14.7758L10.8116 14.6566C11.0458 14.4658 11.2775 14.2766 11.505 14.0891C12.3266 13.4108 13.2775 12.605 14.1033 11.7675C14.9783 10.9363 15.6997 9.95705 16.2341 8.87496C16.5109 8.28813 16.6584 7.64871 16.6667 6.99996C16.6701 6.24816 16.3696 5.52687 15.8333 4.99996C15.276 4.45823 14.5272 4.1587 13.75 4.16663C12.8016 4.15857 11.8949 4.5561 11.2583 5.25913L9.99998 6.70913L8.74165 5.25913C8.10503 4.5561 7.19838 4.15857 6.24998 4.16663Z" fill="#303030"/>
</g></symbol><symbol id="marker-icon" viewBox="0 0 12 16">
<path d="M5.99998 0C2.80482 0 0.205383 2.59944 0.205383 5.79456C0.205383 9.75981 5.39098 15.581 5.61176 15.8269C5.81913 16.0579 6.1812 16.0575 6.3882 15.8269C6.60898 15.581 11.7946 9.75981 11.7946 5.79456C11.7945 2.59944 9.1951 0 5.99998 0ZM5.99998 8.70997C4.39241 8.70997 3.0846 7.40213 3.0846 5.79456C3.0846 4.187 4.39245 2.87919 5.99998 2.87919C7.60751 2.87919 8.91532 4.18703 8.91532 5.79459C8.91532 7.40216 7.60751 8.70997 5.99998 8.70997Z"/>
</symbol><symbol id="phone-icon" viewBox="0 0 16 16">
<path d="M15.5645 11.7424L13.3317 9.50954C12.5342 8.71209 11.1786 9.0311 10.8596 10.0678C10.6203 10.7855 9.8229 11.1842 9.1052 11.0247C7.51031 10.626 5.3572 8.5526 4.95848 6.87797C4.71925 6.16024 5.19771 5.36279 5.91542 5.12359C6.9521 4.80461 7.27107 3.44895 6.47363 2.65151L4.24078 0.418659C3.60282 -0.139553 2.64589 -0.139553 2.08768 0.418659L0.57253 1.93381C-0.942617 3.5287 0.732019 7.75516 4.48001 11.5032C8.22801 15.2511 12.4545 17.0056 14.0494 15.4106L15.5645 13.8955C16.1228 13.2575 16.1228 12.3006 15.5645 11.7424Z"/>
</symbol><symbol id="rate-icon" viewBox="0 0 13 15"><g fill="none">
<line x1="1.1" y1="8" x2="1.1" y2="15" stroke="#303030" stroke-width="2.2"/>
<line x1="6.1" y1="-4.80825e-08" x2="6.1" y2="15" stroke="#303030" stroke-width="2.2"/>
<line x1="11.1" y1="3" x2="11.1" y2="15" stroke="#303030" stroke-width="2.2"/>
</g></symbol><symbol id="rigth-arrow" viewBox="0 0 17 8"><g fill="none">
<path d="M16.3536 4.35355C16.5488 4.15829 16.5488 3.84171 16.3536 3.64645L13.1716 0.464465C12.9763 0.269203 12.6597 0.269203 12.4645 0.464465C12.2692 0.659727 12.2692 0.97631 12.4645 1.17157L15.2929 4L12.4645 6.82843C12.2692 7.02369 12.2692 7.34027 12.4645 7.53553C12.6597 7.73079 12.9763 7.73079 13.1716 7.53553L16.3536 4.35355ZM4.37114e-08 4.5L16 4.5L16 3.5L-4.37114e-08 3.5L4.37114e-08 4.5Z" fill="black"/>
</g></symbol><symbol id="select-icon" viewBox="0 0 9 6"><g fill="none">
<path d="M1 0.712158L4.23753 3.94969L7.47507 0.712158" stroke="#303030" stroke-width="2"/>
</g></symbol></svg>